19:07:29.054 [main] INFO  org.cc86.MMC.client.Main.serverDiscovery(Main.java:159) - Request packet sent to: 255.255.255.255 (DEFAULT)
19:07:29.097 [main] INFO  org.cc86.MMC.client.Main.serverDiscovery(Main.java:192) - Request packet sent to: 192.168.10.255; Interface: Realtek PCIe GBE Family Controller
19:07:29.100 [main] INFO  org.cc86.MMC.client.Main.serverDiscovery(Main.java:192) - Request packet sent to: 169.254.255.255; Interface: TAP-Windows Adapter V9
19:07:29.113 [main] INFO  org.cc86.MMC.client.Main.serverDiscovery(Main.java:196) - Done looping over all network interfaces. Now waiting for a reply!
19:07:29.114 [main] INFO  org.cc86.MMC.client.Main.serverDiscovery(Main.java:204) - Broadcast response from server: 192.168.10.41
19:07:29.115 [main] INFO  org.cc86.MMC.client.Main.main(Main.java:41) - 192.168.10.41
19:07:29.276 [AWT-EventQueue-0] ERROR org.cc86.MMC.client.Menu.bootUI(Menu.java:117) - Ach LEgg mi doch am arsch
19:07:29.375 [AWT-EventQueue-0] INFO  org.cc86.MMC.client.Mod_Stream.loadUI(Mod_Stream.java:47) - figgdi
19:13:21.606 [[External.FFMPEG]] INFO  - ffmpeg version N-69672-g078be09 Copyright (c) 2000-2015 the FFmpeg developers
19:13:21.608 [[External.FFMPEG]] INFO  -   built with gcc 4.9.2 (GCC)
19:13:21.610 [[External.FFMPEG]] INFO  -   configuration: --enable-gpl --enable-version3 --disable-w32threads --enable-avisynth --enable-bzlib --enable-fontconfig --enable-frei0r --enable-gnutls --enable-iconv --enable-libass --enable-libbluray --enable-libbs2b --enable-libcaca --enable-libfreetype --enable-libgme --enable-libgsm --enable-libilbc --enable-libmodplug --enable-libmp3lame --enable-libopencore-amrnb --enable-libopencore-amrwb --enable-libopenjpeg --enable-libopus --enable-librtmp --enable-libschroedinger --enable-libsoxr --enable-libspeex --enable-libtheora --enable-libtwolame --enable-libvidstab --enable-libvo-aacenc --enable-libvo-amrwbenc --enable-libvorbis --enable-libvpx --enable-libwavpack --enable-libwebp --enable-libx264 --enable-libx265 --enable-libxavs --enable-libxvid --enable-lzma --enable-decklink --enable-zlib
19:13:21.612 [[External.FFMPEG]] INFO  -   libavutil      54. 18.100 / 54. 18.100
19:13:21.613 [[External.FFMPEG]] INFO  -   libavcodec     56. 21.102 / 56. 21.102
19:13:21.613 [[External.FFMPEG]] INFO  -   libavformat    56. 19.100 / 56. 19.100
19:13:21.613 [[External.FFMPEG]] INFO  -   libavdevice    56.  4.100 / 56.  4.100
19:13:21.614 [[External.FFMPEG]] INFO  -   libavfilter     5.  9.104 /  5.  9.104
19:13:21.614 [[External.FFMPEG]] INFO  -   libswscale      3.  1.101 /  3.  1.101
19:13:21.615 [[External.FFMPEG]] INFO  -   libswresample   1.  1.100 /  1.  1.100
19:13:21.615 [[External.FFMPEG]] INFO  -   libpostproc    53.  3.100 / 53.  3.100
19:13:21.721 [[External.FFMPEG]] INFO  - Input #0, dshow, from 'video=screen-capture-recorder':
19:13:21.721 [[External.FFMPEG]] INFO  -   Duration: N/A, start: 11226.527000, bitrate: N/A
19:13:21.722 [[External.FFMPEG]] INFO  -     Stream #0:0: Video: rawvideo, bgr0, 1920x1200, 24 tbr, 10000k tbn, 24 tbc
19:13:21.729 [[External.FFMPEG]] INFO  - Output #0, mpegts, to 'udp://192.168.10.41:52438?pkt_size=400?buffer_size=65535':
19:13:21.730 [[External.FFMPEG]] INFO  -   Metadata:
19:13:21.730 [[External.FFMPEG]] INFO  -     encoder         : Lavf56.19.100
19:13:21.731 [[External.FFMPEG]] INFO  -     Stream #0:0: Video: mpeg4, yuv420p, 1920x1200, q=2-31, 200 kb/s, 24 fps, 90k tbn, 24 tbc
19:13:21.731 [[External.FFMPEG]] INFO  -     Metadata:
19:13:21.732 [[External.FFMPEG]] INFO  -       encoder         : Lavc56.21.102 mpeg4
19:13:21.732 [[External.FFMPEG]] INFO  - Stream mapping:
19:13:21.733 [[External.FFMPEG]] INFO  -   Stream #0:0 -> #0:0 (rawvideo (native) -> mpeg4 (native))
19:13:21.733 [[External.FFMPEG]] INFO  - Press [q] to stop, [?] for help
19:13:22.233 [[External.FFMPEG]] INFO  - frame=   13 fps=0.0 q=20.0 size=    1276kB time=00:00:00.54 bitrate=19297.5kbits/s dup=3 drop=0    
19:13:22.734 [[External.FFMPEG]] INFO  - frame=   25 fps= 25 q=20.0 size=    2452kB time=00:00:01.04 bitrate=19282.5kbits/s dup=5 drop=0    
19:13:23.242 [[External.FFMPEG]] INFO  - frame=   37 fps= 24 q=20.0 size=    3630kB time=00:00:01.54 bitrate=19289.9kbits/s dup=7 drop=0    
19:13:23.745 [[External.FFMPEG]] INFO  - frame=   49 fps= 24 q=20.0 size=    4815kB time=00:00:02.04 bitrate=19320.2kbits/s dup=10 drop=0    
19:13:24.251 [[External.FFMPEG]] INFO  - frame=   61 fps= 24 q=20.0 size=    6009kB time=00:00:02.54 bitrate=19367.6kbits/s dup=12 drop=0    
19:13:24.755 [[External.FFMPEG]] INFO  - frame=   73 fps= 24 q=20.0 size=    7206kB time=00:00:03.04 bitrate=19407.8kbits/s dup=14 drop=0    
19:13:25.258 [[External.FFMPEG]] INFO  - frame=   85 fps= 24 q=20.0 size=    8411kB time=00:00:03.54 bitrate=19454.0kbits/s dup=16 drop=0    
19:13:25.771 [[External.FFMPEG]] INFO  - frame=   98 fps= 24 q=20.0 size=    9728kB time=00:00:04.08 bitrate=19515.4kbits/s dup=19 drop=0    
